<?xml version="1.0" encoding="UTF-8"?>
<svg width="600px" height="600px" viewBox="0 0 600 600" version="1.1" xmlns="http://www.w3.org/2000/svg" xmlns:xlink="http://www.w3.org/1999/xlink">
    <title>assets/icon</title>
    <g id="/assets/icon" stroke="none" stroke-width="1" fill="none" fill-rule="evenodd">
        <g id="enphase-energy-inc-logo-vector" transform="translate(56.000000, 49.000000)" fill="#000000" fill-rule="nonzero">
            <path d="M243.804908,501.533052 C147.976476,501.533052 61.029704,446.43324 19.8935966,360.047941 C12.8817601,345.105619 18.9586851,326.894664 34.3847253,319.890451 C49.8107656,312.886237 67.5740847,318.956556 74.5859212,334.365825 C118.994219,427.755338 230.716147,467.912828 324.2073,423.55281 C363.473584,404.874907 395.260576,373.58942 413.491351,334.365825 C420.503188,319.423503 438.733962,312.886237 453.692547,319.890451 C468.651131,326.894664 475.195512,345.105619 468.183676,360.047941 C428.917391,443.631555 346.177721,498.26442 254.088935,502 L243.804908,502 L243.804908,501.533052 Z" id="Path"></path>
            <path d="M457.616858,279 L30.3831418,279 C13.5555556,279 0,265.441272 0,248.609748 C0,231.778225 13.5555556,218.219497 30.3831418,218.219497 L425.363985,218.219497 C408.536398,115.827727 311.777778,47.0990039 209.409962,63.9305278 C151.448276,73.7489167 101.43295,109.749676 74.3218391,161.646875 C66.3754789,176.60823 48.1455939,182.218738 33.1877395,174.270518 C18.2298851,166.322298 12.6206897,148.088147 20.5670498,133.126793 C84.137931,11.5657867 234.183908,-35.1884463 355.249042,28.3973107 C436.582375,70.9436628 488,155.568825 488,247.674664 C487.532567,265.441272 474.444444,279 457.616858,279 L457.616858,279 Z" id="Path"></path>
        </g>
    </g>
</svg>