<?xml version="1.0" encoding="UTF-8"?>
<svg width="600px" height="600px" viewBox="0 0 600 600" version="1.1" xmlns="http://www.w3.org/2000/svg" xmlns:xlink="http://www.w3.org/1999/xlink">
    <title>assets/icon</title>
    <g stroke="none" stroke-width="1" fill="none" fill-rule="evenodd">
        <path d="M299.804908,550.533052 C203.976476,550.533052 117.029704,495.43324 75.8935966,409.047941 C68.8817601,394.105619 74.9586851,375.894664 90.3847253,368.890451 C105.810766,361.886237 123.574085,367.956556 130.585921,383.365825 C174.994219,476.755338 286.716147,516.912828 380.2073,472.55281 C419.473584,453.874907 451.260576,422.58942 469.491351,383.365825 C476.503188,368.423503 494.733962,361.886237 509.692547,368.890451 C524.651131,375.894664 531.195512,394.105619 524.183676,409.047941 C484.917391,492.631555 402.177721,547.26442 310.088935,551 L299.804908,551 L299.804908,550.533052 Z" id="Path" fill="#000000" fill-rule="nonzero"></path>
        <path d="M513.616858,328 L86.3831418,328 C69.5555556,328 56,314.441272 56,297.609748 C56,280.778225 69.5555556,267.219497 86.3831418,267.219497 L481.363985,267.219497 C464.536398,164.827727 367.777778,96.0990039 265.409962,112.930528 C207.448276,122.748917 157.43295,158.749676 130.321839,210.646875 C122.375479,225.60823 104.145594,231.218738 89.1877395,223.270518 C74.2298851,215.322298 68.6206897,197.088147 76.5670498,182.126793 C140.137931,60.5657867 290.183908,13.8115537 411.249042,77.3973107 C492.582375,119.943663 544,204.568825 544,296.674664 C543.532567,314.441272 530.444444,328 513.616858,328 L513.616858,328 Z" id="Path" fill="#000000" fill-rule="nonzero"></path>
    </g>
</svg>