<?xml version="1.0" encoding="UTF-8"?>
<svg width="600px" height="600px" viewBox="0 0 600 600" version="1.1" xmlns="http://www.w3.org/2000/svg" xmlns:xlink="http://www.w3.org/1999/xlink">
    <title>drivers/enphase_driver/assets/icon</title>
    <g stroke="none" stroke-width="1" fill="none" fill-rule="evenodd">
        <path d="M558.997153,136 C569.979499,136 575,143.853516 575,149.193566 C575,154.533615 575,436.299753 574.686219,449.806937 C574.372437,463 564.645216,463 564.645216,463 C564.645216,463 62.2813212,463 41.2579727,463 C24.6275626,463 24,452.948142 24,448.236334 C24,443.210405 24,150.764169 24,150.764169 C24,135.686382 36.2374715,136 39.3752847,136 C39.3752847,136 542.366743,136 558.997153,136 Z" id="Path" stroke="#000000" stroke-width="20" fill-rule="nonzero"></path>
        <polygon id="Path" fill="#000000" fill-rule="nonzero" points="440 208 421.308677 208 393.894737 248.830508 412.58606 248.830508 397.633001 281 438.753912 233.983051 421.308677 233.983051"></polygon>
        <line x1="489.5" y1="463" x2="489.5" y2="136" id="Path" stroke="#000000" stroke-width="15" fill-rule="nonzero"></line>
        <line x1="24" y1="353.5" x2="489" y2="353.5" id="Path" stroke="#000000" stroke-width="15" fill-rule="nonzero"></line>
        <g id="Group" transform="translate(83.000000, 190.000000)" fill="#000000" fill-rule="nonzero">
            <path d="M53.3605016,109 C31.6175549,109 12.4326019,96.6447876 3.47962382,78.1119691 C2.20062696,74.4054054 3.47962382,70.6988417 7.31661442,69.4633205 C11.153605,68.2277992 14.9905956,69.4633205 16.2695925,73.1698842 C23.9435737,87.996139 39.2915361,96.6447876 55.9184953,96.6447876 C71.2664577,95.4092664 85.3354232,86.7606178 91.7304075,73.1698842 C93.0094044,69.4633205 96.846395,68.2277992 100.683386,69.4633205 C104.520376,70.6988417 105.799373,74.4054054 104.520376,78.1119691 C95.5673981,96.6447876 77.661442,107.764479 57.1974922,109 C54.6394984,109 54.6394984,109 53.3605016,109 Z" id="Path"></path>
            <path d="M100.376471,60 L6.35294118,60 C2.54117647,60 0,57.4468085 0,53.6170213 C0,49.787234 2.54117647,47.2340426 6.35294118,47.2340426 L94.0235294,47.2340426 C90.2117647,28.0851064 73.6941176,12.7659574 53.3647059,12.7659574 C38.1176471,12.7659574 24.1411765,21.7021277 16.5176471,35.7446809 C15.2470588,39.5744681 10.1647059,40.8510638 7.62352941,38.2978723 C3.81176471,37.0212766 2.54117647,31.9148936 5.08235294,29.3617021 C13.9764706,11.4893617 33.0352941,0 53.3647059,0 C83.8588235,0 108,24.2553191 108,54.893617 C108,56.1702128 106.729412,58.7234043 105.458824,60 C104.188235,60 102.917647,60 100.376471,60 Z" id="Path"></path>
        </g>
    </g>
</svg>