<?xml version="1.0" encoding="UTF-8"?>
<svg width="600px" height="600px" viewBox="0 0 600 600" version="1.1" xmlns="http://www.w3.org/2000/svg" xmlns:xlink="http://www.w3.org/1999/xlink">
    <title>drivers/YOUR_DRIVER_ID/assets/icon</title>
    <g id="/drivers/YOUR_DRIVER_ID/assets/icon" stroke="none" stroke-width="1" fill="none" fill-rule="evenodd">
        <g id="Group" transform="translate(24.000000, 136.000000)">
            <path d="M534.997153,0 C545.979499,0 551,7.85351646 551,13.1935659 C551,18.5336153 551,300.299753 550.686219,313.806937 C550.372437,327 540.645216,327 540.645216,327 C540.645216,327 38.2813212,327 17.2579727,327 C0.627562642,327 0,316.948142 0,312.236334 C0,307.210405 0,14.7641687 0,14.7641687 C0,-0.313617962 12.2374715,0 15.3752847,0 C15.3752847,0 518.366743,0 534.997153,0 Z" id="Path" fill="#000000" fill-rule="nonzero"></path>
            <polygon id="Path" fill="#FFFFFF" fill-rule="nonzero" points="521 145 511.27027 145 497 166.254237 506.72973 166.254237 498.945946 183 520.351351 158.525424 511.27027 158.525424"></polygon>
            <line x1="465.5" y1="327" x2="465.5" y2="0" id="Path" stroke="#FFFFFF" stroke-width="6.843"></line>
            <line x1="0" y1="217.5" x2="465" y2="217.5" id="Path" stroke="#FFFFFF" stroke-width="6.843"></line>
            <g transform="translate(36.000000, 36.000000)" fill="#FFFFFF" fill-rule="nonzero" id="Path">
                <g>
                    <path d="M35.5736677,73 C21.0783699,73 8.28840125,64.6602317 2.31974922,52.1505792 C1.46708464,49.6486486 2.31974922,47.1467181 4.87774295,46.3127413 C7.43573668,45.4787645 9.99373041,46.3127413 10.846395,48.8146718 C15.9623824,58.8223938 26.1943574,64.6602317 37.2789969,64.6602317 C47.5109718,63.8262548 56.8902821,57.988417 61.153605,48.8146718 C62.0062696,46.3127413 64.5642633,45.4787645 67.1222571,46.3127413 C69.6802508,47.1467181 70.5329154,49.6486486 69.6802508,52.1505792 C63.7115987,64.6602317 51.7742947,72.1660232 38.1316614,73 C36.4263323,73 36.4263323,73 35.5736677,73 Z"></path>
                    <path d="M66.9176471,40 L4.23529412,40 C1.69411765,40 0,38.2978723 0,35.7446809 C0,33.1914894 1.69411765,31.4893617 4.23529412,31.4893617 L62.6823529,31.4893617 C60.1411765,18.7234043 49.1294118,8.5106383 35.5764706,8.5106383 C25.4117647,8.5106383 16.0941176,14.4680851 11.0117647,23.8297872 C10.1647059,26.3829787 6.77647059,27.2340426 5.08235294,25.5319149 C2.54117647,24.6808511 1.69411765,21.2765957 3.38823529,19.5744681 C9.31764706,7.65957447 22.0235294,0 35.5764706,0 C55.9058824,0 72,16.1702128 72,36.5957447 C72,37.4468085 71.1529412,39.1489362 70.3058824,40 C69.4588235,40 68.6117647,40 66.9176471,40 Z"></path>
                </g>
            </g>
        </g>
    </g>
</svg>